<svg width="15" height="15" viewBox="0 0 15 15" fill="none" xmlns="http://www.w3.org/2000/svg">
<path d="M14.1449 4.71844L13.289 3.83187C13.2077 3.77062 13.1162 3.74031 13.014 3.74031C12.9118 3.74031 12.8305 3.77094 12.7696 3.83187L4.7299 11.9019L1.7649 8.93688C1.70365 8.85531 1.62271 8.81469 1.52053 8.81469C1.41834 8.81469 1.32646 8.85531 1.24553 8.93688L0.389277 9.7925C0.308027 9.87406 0.26709 9.96594 0.26709 10.0675C0.26709 10.1691 0.308027 10.2509 0.389277 10.3119L4.4549 14.4078C4.53615 14.4691 4.62771 14.4997 4.7299 14.4997C4.83209 14.4997 4.91334 14.4691 4.97428 14.4078L14.1446 5.2375C14.2258 5.15594 14.2668 5.06406 14.2668 4.9625C14.2671 4.86125 14.2262 4.77938 14.1449 4.71844ZM4.38834 8.4075C4.47021 8.46906 4.56271 8.5 4.66584 8.5C4.76896 8.5 4.85084 8.46906 4.9124 8.4075L11.309 2.01094C11.3908 1.92844 11.4324 1.83594 11.4324 1.73344C11.4324 1.63094 11.3908 1.54844 11.309 1.48688L10.4455 0.5925C10.3637 0.530937 10.2712 0.5 10.168 0.5C10.0649 0.5 9.98303 0.530937 9.92146 0.5925L4.66584 5.87875L2.77803 3.99094C2.71646 3.90844 2.63459 3.8675 2.53146 3.8675C2.42834 3.8675 2.33584 3.90844 2.25396 3.99094L1.39053 4.85437C1.30865 4.93687 1.26709 5.02938 1.26709 5.13188C1.26709 5.23469 1.30865 5.31687 1.39053 5.37844L4.38834 8.4075Z" fill="#607D8B"/>
</svg>
