<!DOCTYPE svg >
<svg width="16" height="16" viewBox="0 0 32 32" id="show" xmlns="http://www.w3.org/2000/svg">
    <path
        d="M16.0001 9.58333C15.4113 9.59282 14.8268 9.68929 14.2645 9.86979C14.5246 10.3415 14.6631 10.8741 14.6668 11.4167C14.6668 11.838 14.5863 12.2552 14.4299 12.6444C14.2736 13.0337 14.0444 13.3874 13.7555 13.6853C13.4666 13.9832 13.1237 14.2195 12.7462 14.3808C12.3688 14.542 11.9642 14.625 11.5556 14.625C11.0295 14.6212 10.513 14.4784 10.0556 14.2102C9.69477 15.5009 9.73683 16.8759 10.1759 18.1406C10.6149 19.4052 11.4287 20.4953 12.5019 21.2565C13.5751 22.0177 14.8533 22.4114 16.1555 22.3819C17.4577 22.3523 18.7179 21.9009 19.7576 21.0917C20.7972 20.2825 21.5636 19.1564 21.9482 17.8731C22.3328 16.5897 22.3161 15.2141 21.9005 13.9411C21.4848 12.6681 20.6913 11.5622 19.6324 10.7801C18.5734 9.99796 17.3026 9.57928 16.0001 9.58333ZM31.8068 15.1635C28.794 9.10151 22.8295 5 16.0001 5C9.17065 5 3.20454 9.10438 0.193425 15.1641C0.0663372 15.4234 0.00012207 15.7098 0.00012207 16.0003C0.00012207 16.2908 0.0663372 16.5772 0.193425 16.8365C3.2062 22.8985 9.17065 27 16.0001 27C22.8295 27 28.7956 22.8956 31.8068 16.8359C31.9338 16.5766 32.0001 16.2902 32.0001 15.9997C32.0001 15.7092 31.9338 15.4228 31.8068 15.1635ZM16.0001 24.25C10.5195 24.25 5.49509 21.099 2.78176 16C5.49509 10.901 10.519 7.75 16.0001 7.75C21.4812 7.75 26.5051 10.901 29.2184 16C26.5056 21.099 21.4812 24.25 16.0001 24.25Z"
        ></path>
</svg>
