<!DOCTYPE svg>
<svg width="17" height="16" viewBox="0 0 17 16" fill="none" xmlns="http://www.w3.org/2000/svg">
	<path
		d="M8.5 0.25C4.22009 0.25 0.75 3.72134 0.75 8C0.75 12.2812 4.22009 15.75 8.5 15.75C12.7799 15.75 16.25 12.2812 16.25 8C16.25 3.72134 12.7799 0.25 8.5 0.25ZM8.5 14.25C5.04588 14.25 2.25 11.4553 2.25 8C2.25 4.54703 5.046 1.75 8.5 1.75C11.9528 1.75 14.75 4.54597 14.75 8C14.75 11.4541 11.9553 14.25 8.5 14.25ZM9.8125 11C9.8125 11.7237 9.22372 12.3125 8.5 12.3125C7.77628 12.3125 7.1875 11.7237 7.1875 11C7.1875 10.2763 7.77628 9.6875 8.5 9.6875C9.22372 9.6875 9.8125 10.2763 9.8125 11ZM7.26969 4.39372L7.48219 8.64372C7.49216 8.84331 7.65691 9 7.85672 9H9.14328C9.34309 9 9.50784 8.84331 9.51781 8.64372L9.73031 4.39372C9.74103 4.17953 9.57025 4 9.35578 4H7.64422C7.42975 4 7.25897 4.17953 7.26969 4.39372Z"
		fill="white" />
</svg>